<svg xmlns="http://www.w3.org/2000/svg" width="320" height="400" viewBox="0 0 320 400"><defs>
<linearGradient id="skin_light" x2=".8" y2="1"><stop stop-color="#ffe8cf"/><stop offset="1" stop-color="#eab894"/></linearGradient>
<linearGradient id="skin_kid" x2=".8" y2="1"><stop stop-color="#f6cfa6"/><stop offset="1" stop-color="#cf8f62"/></linearGradient>
<linearGradient id="skin_deep" x2=".8" y2="1"><stop stop-color="#c9926b"/><stop offset="1" stop-color="#8c5a3d"/></linearGradient>
<linearGradient id="cardigan" x2=".4" y2="1"><stop stop-color="#c7b1e0"/><stop offset="1" stop-color="#7f68a8"/></linearGradient>
<linearGradient id="tee" x2=".4" y2="1"><stop stop-color="#ef6a5d"/><stop offset="1" stop-color="#bb3b3f"/></linearGradient>
<linearGradient id="oxford" x2="1" y2="1"><stop stop-color="#dcebfb"/><stop offset="1" stop-color="#8fb0d6"/></linearGradient>
<linearGradient id="catfur" x2=".5" y2="1"><stop stop-color="#ffb767"/><stop offset="1" stop-color="#d9772f"/></linearGradient>
<linearGradient id="mousefur" x2=".5" y2="1"><stop stop-color="#d9d4de"/><stop offset="1" stop-color="#9890a6"/></linearGradient>
</defs><path d="M121 137 Q135 133 149 139 Q146 151 126 149 Z" fill="#fff8e8" stroke="#453747" stroke-width="3" stroke-linecap="round" stroke-linejoin="round" /><ellipse cx="137" cy="144" rx="4" ry="5" fill="#453747" stroke="none" stroke-width="0" /><path d="M120 136 Q135 134 149 139" fill="none" stroke="#453747" stroke-width="6" stroke-linecap="round" stroke-linejoin="round" /><path d="M123 153 Q135 157 146 153" fill="none" stroke="#c1847a" stroke-width="3" stroke-linecap="round" stroke-linejoin="round" /><path d="M175 137 Q189 133 203 139 Q200 151 180 149 Z" fill="#fff8e8" stroke="#453747" stroke-width="3" stroke-linecap="round" stroke-linejoin="round" /><ellipse cx="191" cy="144" rx="4" ry="5" fill="#453747" stroke="none" stroke-width="0" /><path d="M174 136 Q189 134 203 139" fill="none" stroke="#453747" stroke-width="6" stroke-linecap="round" stroke-linejoin="round" /><path d="M177 153 Q189 157 200 153" fill="none" stroke="#c1847a" stroke-width="3" stroke-linecap="round" stroke-linejoin="round" /><path d="M121 123 q14 5 27 2 M176 125 q14 -3 27 1" fill="none" stroke="#453747" stroke-width="4" stroke-linecap="round" stroke-linejoin="round" /><ellipse cx="161" cy="196" rx="14" ry="15" fill="#8d4b59" stroke="#453747" stroke-width="4" /><path d="M151 188 Q161 185 171 188" fill="none" stroke="#fff4dd" stroke-width="4" stroke-linecap="round" stroke-linejoin="round" /><ellipse cx="161" cy="204" rx="8" ry="4" fill="#e69398" stroke="none" stroke-width="0" /></svg>
