<svg xmlns="http://www.w3.org/2000/svg" width="320" height="400" viewBox="0 0 320 400"><defs>
<linearGradient id="skin_light" x2=".8" y2="1"><stop stop-color="#ffe8cf"/><stop offset="1" stop-color="#eab894"/></linearGradient>
<linearGradient id="skin_kid" x2=".8" y2="1"><stop stop-color="#f6cfa6"/><stop offset="1" stop-color="#cf8f62"/></linearGradient>
<linearGradient id="skin_deep" x2=".8" y2="1"><stop stop-color="#c9926b"/><stop offset="1" stop-color="#8c5a3d"/></linearGradient>
<linearGradient id="cardigan" x2=".4" y2="1"><stop stop-color="#e35a4a"/><stop offset="1" stop-color="#9e2133"/></linearGradient>
<linearGradient id="tee" x2=".4" y2="1"><stop stop-color="#ef6a5d"/><stop offset="1" stop-color="#bb3b3f"/></linearGradient>
<linearGradient id="oxford" x2="1" y2="1"><stop stop-color="#dcebfb"/><stop offset="1" stop-color="#8fb0d6"/></linearGradient>
<linearGradient id="catfur" x2=".5" y2="1"><stop stop-color="#ffb767"/><stop offset="1" stop-color="#d9772f"/></linearGradient>
<linearGradient id="mousefur" x2=".5" y2="1"><stop stop-color="#d9d4de"/><stop offset="1" stop-color="#9890a6"/></linearGradient>
</defs><path d="M123 111 Q137 107 151 113 Q148 125 128 123 Z" fill="#fff8e8" stroke="#453747" stroke-width="3" stroke-linecap="round" stroke-linejoin="round" /><ellipse cx="139" cy="118" rx="4" ry="5" fill="#453747" stroke="none" stroke-width="0" /><path d="M122 110 Q137 108 151 113" fill="none" stroke="#453747" stroke-width="6" stroke-linecap="round" stroke-linejoin="round" /><path d="M125 127 Q137 131 148 127" fill="none" stroke="#c1847a" stroke-width="3" stroke-linecap="round" stroke-linejoin="round" /><path d="M170 111 Q184 107 198 113 Q195 125 175 123 Z" fill="#fff8e8" stroke="#453747" stroke-width="3" stroke-linecap="round" stroke-linejoin="round" /><ellipse cx="186" cy="118" rx="4" ry="5" fill="#453747" stroke="none" stroke-width="0" /><path d="M169 110 Q184 108 198 113" fill="none" stroke="#453747" stroke-width="6" stroke-linecap="round" stroke-linejoin="round" /><path d="M172 127 Q184 131 195 127" fill="none" stroke="#c1847a" stroke-width="3" stroke-linecap="round" stroke-linejoin="round" /><path d="M123 97 q14 5 27 2 M171 99 q14 -3 27 1" fill="none" stroke="#453747" stroke-width="4" stroke-linecap="round" stroke-linejoin="round" /><ellipse cx="161" cy="159" rx="14" ry="15" fill="#8d4b59" stroke="#453747" stroke-width="4" /><path d="M151 151 Q161 148 171 151" fill="none" stroke="#fff4dd" stroke-width="4" stroke-linecap="round" stroke-linejoin="round" /><ellipse cx="161" cy="167" rx="8" ry="4" fill="#e69398" stroke="none" stroke-width="0" /></svg>
