<svg xmlns="http://www.w3.org/2000/svg" width="320" height="400" viewBox="0 0 320 400"><defs>
<linearGradient id="skin_light" x2=".8" y2="1"><stop stop-color="#ffe8cf"/><stop offset="1" stop-color="#eab894"/></linearGradient>
<linearGradient id="skin_kid" x2=".8" y2="1"><stop stop-color="#f6cfa6"/><stop offset="1" stop-color="#cf8f62"/></linearGradient>
<linearGradient id="skin_deep" x2=".8" y2="1"><stop stop-color="#c9926b"/><stop offset="1" stop-color="#8c5a3d"/></linearGradient>
<linearGradient id="cardigan" x2=".4" y2="1"><stop stop-color="#c7b1e0"/><stop offset="1" stop-color="#7f68a8"/></linearGradient>
<linearGradient id="tee" x2=".4" y2="1"><stop stop-color="#ef6a5d"/><stop offset="1" stop-color="#bb3b3f"/></linearGradient>
<linearGradient id="oxford" x2="1" y2="1"><stop stop-color="#dcebfb"/><stop offset="1" stop-color="#8fb0d6"/></linearGradient>
<linearGradient id="catfur" x2=".5" y2="1"><stop stop-color="#ffb767"/><stop offset="1" stop-color="#d9772f"/></linearGradient>
<linearGradient id="mousefur" x2=".5" y2="1"><stop stop-color="#d9d4de"/><stop offset="1" stop-color="#9890a6"/></linearGradient>
</defs><ellipse cx="135" cy="137" rx="9" ry="11" fill="#fff8e8" stroke="#453747" stroke-width="3" /><ellipse cx="135" cy="137" rx="4" ry="5" fill="#453747" stroke="none" stroke-width="0" /><ellipse cx="133" cy="134" rx="2" ry="2" fill="#fff" stroke="none" stroke-width="0" /><ellipse cx="189" cy="137" rx="9" ry="11" fill="#fff8e8" stroke="#453747" stroke-width="3" /><ellipse cx="189" cy="137" rx="4" ry="5" fill="#453747" stroke="none" stroke-width="0" /><ellipse cx="187" cy="134" rx="2" ry="2" fill="#fff" stroke="none" stroke-width="0" /><path d="M124 120 q11 -5 22 -1 M178 119 q11 -4 22 1" fill="none" stroke="#453747" stroke-width="4" stroke-linecap="round" stroke-linejoin="round" /><path d="M146 196 Q162 204 178 195" fill="none" stroke="#453747" stroke-width="4" stroke-linecap="round" stroke-linejoin="round" /></svg>
