<svg xmlns="http://www.w3.org/2000/svg" width="320" height="400" viewBox="0 0 320 400"><defs>
<linearGradient id="skin" x2=".8" y2="1"><stop stop-color="#ffdfb0"/><stop offset="1" stop-color="#e9a478"/></linearGradient>
<linearGradient id="shirt" x2="1" y2="1"><stop stop-color="#ddf2e5"/><stop offset="1" stop-color="#8fbbae"/></linearGradient>
<linearGradient id="vest" x2=".4" y2="1"><stop stop-color="#b85266"/><stop offset="1" stop-color="#773b57"/></linearGradient>
<linearGradient id="fur" x2=".5" y2="1"><stop stop-color="#ffda86"/><stop offset="1" stop-color="#d78c42"/></linearGradient>
<linearGradient id="ear" x2="1" y2="1"><stop stop-color="#835544"/><stop offset="1" stop-color="#513946"/></linearGradient>
</defs><path d="M121 141 Q135 120 149 141" fill="none" stroke="#453747" stroke-width="6" stroke-linecap="round" stroke-linejoin="round" /><path d="M119 146 l-4 4 M151 146 l4 4" fill="none" stroke="#c4776e" stroke-width="3" stroke-linecap="round" stroke-linejoin="round" /><path d="M175 141 Q189 120 203 141" fill="none" stroke="#453747" stroke-width="6" stroke-linecap="round" stroke-linejoin="round" /><path d="M173 146 l-4 4 M205 146 l4 4" fill="none" stroke="#c4776e" stroke-width="3" stroke-linecap="round" stroke-linejoin="round" /><path d="M124 120 q11 -5 22 -1 M178 119 q11 -4 22 1" fill="none" stroke="#453747" stroke-width="4" stroke-linecap="round" stroke-linejoin="round" /><path d="M135 188 Q161 199 188 187 Q179 214 160 213 Q142 210 135 188 Z" fill="#914659" stroke="#453747" stroke-width="4" stroke-linecap="round" stroke-linejoin="round" /><path d="M142 192 Q161 198 180 191" fill="none" stroke="#fff4dd" stroke-width="6" stroke-linecap="round" stroke-linejoin="round" /><ellipse cx="161" cy="207" rx="10" ry="4" fill="#e69398" stroke="none" stroke-width="0" /></svg>
